<?xml version="1.0" encoding="UTF-8"?>
<svg width="32px" height="32px" viewBox="0 0 32 32" version="1.1" xmlns="http://www.w3.org/2000/svg" xmlns:xlink="http://www.w3.org/1999/xlink">
    <title>布控</title>
    <g id="结果树" stroke="none" stroke-width="1" fill="none" fill-rule="evenodd">
        <path d="M16,0 C24.836556,0 32,7.163444 32,16 C32,24.836556 24.836556,32 16,32 C7.163444,32 0,24.836556 0,16 C0,7.163444 7.163444,0 16,0 Z M16,1.2 C7.8261857,1.2 1.2,7.8261857 1.2,16 C1.2,24.1738143 7.8261857,30.8 16,30.8 C24.1738143,30.8 30.8,24.1738143 30.8,16 C30.8,7.8261857 24.1738143,1.2 16,1.2 Z M16,2.66666667 C23.3637967,2.66666667 29.3333333,8.63620334 29.3333333,16 C29.3333333,23.3637967 23.3637967,29.3333333 16,29.3333333 C8.63620334,29.3333333 2.66666667,23.3637967 2.66666667,16 C2.66666667,8.63620334 8.63620334,2.66666667 16,2.66666667 Z M19.15,21.58 L12.85,21.58 C12.6290861,21.58 12.4453525,21.7391876 12.4072501,21.9491119 L12.4,22.03 L12.4,22.93 C12.4,23.1509139 12.5591876,23.3346475 12.7691119,23.3727499 L12.85,23.38 L19.15,23.38 C19.3709139,23.38 19.5546475,23.2208124 19.5927499,23.0108881 L19.6,22.93 L19.6,22.03 C19.6,21.7814719 19.3985281,21.58 19.15,21.58 Z M22.75,8.98 L9.25,8.98 L9.16911193,8.9872501 C8.98542818,9.02058967 8.84058967,9.16542818 8.8072501,9.34911193 L8.8,9.43 L8.8,20.23 L8.8072501,20.3108881 C8.84058967,20.4945718 8.98542818,20.6394103 9.16911193,20.6727499 L9.25,20.68 L22.75,20.68 L22.8308881,20.6727499 C23.0145718,20.6394103 23.1594103,20.4945718 23.1927499,20.3108881 L23.2,20.23 L23.2,9.43 L23.1927499,9.34911193 C23.1546475,9.13918764 22.9709139,8.98 22.75,8.98 Z M20.95,10.78 C21.1709139,10.78 21.3546475,10.9391876 21.3927499,11.1491119 L21.4,11.23 L21.4,18.43 L21.3927499,18.5108881 C21.3594103,18.6945718 21.2145718,18.8394103 21.0308881,18.8727499 L20.95,18.88 L11.05,18.88 L10.9691119,18.8727499 C10.7854282,18.8394103 10.6405897,18.6945718 10.6072501,18.5108881 L10.6,18.43 L10.6,11.23 L10.6072501,11.1491119 C10.6405897,10.9654282 10.7854282,10.8205897 10.9691119,10.7872501 L11.05,10.78 L20.95,10.78 Z M13.75,13.93 L12.85,13.93 C12.6290861,13.93 12.4453525,14.0891876 12.4072501,14.2991119 L12.4,14.38 L12.4,17.08 C12.4,17.3009139 12.5591876,17.4846475 12.7691119,17.5227499 L12.85,17.53 L13.75,17.53 C13.9709139,17.53 14.1546475,17.3708124 14.1927499,17.1608881 L14.2,17.08 L14.2,14.38 C14.2,14.1314719 13.9985281,13.93 13.75,13.93 Z M16.45,15.73 L15.55,15.73 C15.3290861,15.73 15.1453525,15.8891876 15.1072501,16.0991119 L15.1,16.18 L15.1,17.08 C15.1,17.3009139 15.2591876,17.4846475 15.4691119,17.5227499 L15.55,17.53 L16.45,17.53 C16.6709139,17.53 16.8546475,17.3708124 16.8927499,17.1608881 L16.9,17.08 L16.9,16.18 C16.9,15.9314719 16.6985281,15.73 16.45,15.73 Z M19.15,12.13 L18.25,12.13 C18.0290861,12.13 17.8453525,12.2891876 17.8072501,12.4991119 L17.8,12.58 L17.8,17.08 C17.8,17.3009139 17.9591876,17.4846475 18.1691119,17.5227499 L18.25,17.53 L19.15,17.53 C19.3709139,17.53 19.5546475,17.3708124 19.5927499,17.1608881 L19.6,17.08 L19.6,12.58 C19.6,12.3314719 19.3985281,12.13 19.15,12.13 Z" id="布控" fill="#F2A230"></path>
    </g>
</svg>