<?xml version="1.0" encoding="UTF-8"?>
<svg width="32px" height="32px" viewBox="0 0 32 32" version="1.1" xmlns="http://www.w3.org/2000/svg" xmlns:xlink="http://www.w3.org/1999/xlink">
    <title>协查</title>
    <g id="结果树" stroke="none" stroke-width="1" fill="none" fill-rule="evenodd">
        <path d="M16,0 C24.836556,0 32,7.163444 32,16 C32,24.836556 24.836556,32 16,32 C7.163444,32 0,24.836556 0,16 C0,7.163444 7.163444,0 16,0 Z M16,1.2 C7.8261857,1.2 1.2,7.8261857 1.2,16 C1.2,24.1738143 7.8261857,30.8 16,30.8 C24.1738143,30.8 30.8,24.1738143 30.8,16 C30.8,7.8261857 24.1738143,1.2 16,1.2 Z M16,2.66666667 C23.3637967,2.66666667 29.3333333,8.63620334 29.3333333,16 C29.3333333,23.3637967 23.3637967,29.3333333 16,29.3333333 C8.63620334,29.3333333 2.66666667,23.3637967 2.66666667,16 C2.66666667,8.63620334 8.63620334,2.66666667 16,2.66666667 Z M19.4736842,8 L12.5263158,8 L12.4672403,8.00793799 C12.3919964,8.02863527 12.3327288,8.08790284 12.3120316,8.16314675 L12.3040936,8.22222222 L12.3037778,9.699 L10,9.7 C9.89772505,9.7 9.81158736,9.76909186 9.78571577,9.86314675 L9.77777778,9.92222222 L9.77777778,22.8888889 C9.77777778,22.9911638 9.84686964,23.0773015 9.94092453,23.1031731 L10,23.1111111 L22,23.1111111 C22.102275,23.1111111 22.1884126,23.0420193 22.2142842,22.9479644 L22.2222222,22.8888889 L22.2222222,9.92222222 C22.2222222,9.81994727 22.1531304,9.73380958 22.0590755,9.70793799 L22,9.7 L19.6957778,9.699 L19.6959064,8.22222222 L19.6879684,8.16314675 C19.6620968,8.06909186 19.5759592,8 19.4736842,8 Z M12.3037778,11.211 L12.3040936,12.0088889 L12.3120316,12.0679644 C12.3327288,12.1432083 12.3919964,12.2024758 12.4672403,12.2231731 L12.5263158,12.2311111 L19.4736842,12.2311111 L19.5327597,12.2231731 C19.6080036,12.2024758 19.6672712,12.1432083 19.6879684,12.0679644 L19.6959064,12.0088889 L19.6957778,11.211 L20.5028304,11.2104454 L20.5619953,11.2182935 C20.6372375,11.2389908 20.6964968,11.2982584 20.7171525,11.3735023 L20.7250526,11.4325778 L20.7250526,21.3776833 C20.7250526,21.4799583 20.6559608,21.566096 20.5619059,21.5919676 L20.5028304,21.5999056 L11.4963275,21.5999056 C11.3940525,21.5999056 11.3079148,21.5308137 11.2820433,21.4367588 L11.2741053,21.3776833 L11.2741053,11.4325778 L11.2819679,11.3734037 C11.3026999,11.2981713 11.3619949,11.2389406 11.4372483,11.2183257 L11.4963275,11.2104583 L12.3037778,11.211 Z M18.3040936,17.6805556 L13.6959064,17.6805556 C13.5936315,17.6805556 13.5074938,17.7496474 13.4816222,17.8437023 L13.4736842,17.9027778 L13.4736842,19.1583333 C13.4736842,19.2606083 13.5427761,19.346746 13.636831,19.3726176 L13.6959064,19.3805556 L18.3040936,19.3805556 C18.4063685,19.3805556 18.4925062,19.3114637 18.5183778,19.2174088 L18.5263158,19.1583333 L18.5263158,17.9027778 C18.5263158,17.7800478 18.4268235,17.6805556 18.3040936,17.6805556 Z M18.3040936,14.2805556 L13.6959064,14.2805556 C13.5936315,14.2805556 13.5074938,14.3496474 13.4816222,14.4437023 L13.4736842,14.5027778 L13.4736842,15.7583333 C13.4736842,15.8606083 13.5427761,15.946746 13.636831,15.9726176 L13.6959064,15.9805556 L18.3040936,15.9805556 C18.4063685,15.9805556 18.4925062,15.9114637 18.5183778,15.8174088 L18.5263158,15.7583333 L18.5263158,14.5027778 C18.5263158,14.3800478 18.4268235,14.2805556 18.3040936,14.2805556 Z M17.9765146,9.51035556 C18.0787896,9.51035556 18.1649273,9.57944742 18.1907988,9.67350231 L18.1987368,9.73257778 L18.1987368,10.4976833 L18.1907988,10.5567588 C18.1701016,10.6320027 18.110834,10.6912703 18.0355901,10.7119676 L17.9765146,10.7199056 L14.0226433,10.7199056 L13.9635678,10.7119676 C13.8883239,10.6912703 13.8290563,10.6320027 13.808359,10.5567588 L13.8004211,10.4976833 L13.8004211,9.73257778 L13.808359,9.67350231 C13.8290563,9.59825839 13.8883239,9.53899082 13.9635678,9.51829355 L14.0226433,9.51035556 L17.9765146,9.51035556 Z" id="协查" fill="#338DFF"></path>
    </g>
</svg>